<svg width="36" height="48" viewBox="0 0 36 48" fill="none" xmlns="http://www.w3.org/2000/svg">
<path d="M9.10509 33.9966C8.29041 33.182 8.7151 33.4117 6.75012 32.8857C5.85856 32.6467 5.07482 32.1873 4.36608 31.637L0.112684 42.0655C-0.298874 43.0752 0.469868 44.1721 1.55923 44.1308L6.49887 43.9424L9.89633 47.5311C10.6463 48.3223 11.9626 48.0757 12.3741 47.0661L17.2538 35.1019C16.2375 35.6682 15.1097 36 13.9435 36C12.1154 36 10.3979 35.2885 9.10509 33.9966ZM35.8873 42.0655L31.6339 31.637C30.9252 32.1882 30.1414 32.6467 29.2499 32.8857C27.2746 33.4145 27.7077 33.1838 26.8949 33.9966C25.6021 35.2885 23.8837 36 22.0556 36C20.8893 36 19.7615 35.6672 18.7453 35.1019L23.6249 47.0661C24.0365 48.0757 25.3537 48.3223 26.1027 47.5311L29.5011 43.9424L34.4408 44.1308C35.5301 44.1721 36.2989 43.0743 35.8873 42.0655ZM24.6562 31.8751C26.0887 30.4173 26.2527 30.543 28.2927 29.987C29.5949 29.6317 30.613 28.5958 30.9617 27.2702C31.663 24.6078 31.4811 24.9293 33.3945 22.9812C34.348 22.0109 34.7201 20.5963 34.3714 19.2707C33.6711 16.6101 33.6702 16.9814 34.3714 14.318C34.7201 12.9924 34.348 11.5777 33.3945 10.6074C31.4811 8.65933 31.663 8.97995 30.9617 6.31844C30.613 4.99284 29.5949 3.95693 28.2927 3.60162C25.679 2.8882 25.994 3.07476 24.0787 1.12573C23.1253 0.15544 21.735 -0.22424 20.4328 0.131066C17.82 0.843552 18.1847 0.844489 15.5672 0.131066C14.265 -0.22424 12.8747 0.154503 11.9213 1.12573C10.0079 3.07382 10.3229 2.8882 7.70823 3.60162C6.40606 3.95693 5.38794 4.99284 5.0392 6.31844C4.33889 8.97995 4.51983 8.65933 2.60641 10.6074C1.65298 11.5777 1.27986 12.9924 1.62954 14.318C2.32985 16.9767 2.33079 16.6054 1.62954 19.2697C1.2808 20.5953 1.65298 22.01 2.60641 22.9812C4.51983 24.9293 4.33795 24.6078 5.0392 27.2702C5.38794 28.5958 6.40606 29.6317 7.70823 29.987C9.80634 30.5589 9.9629 30.4689 11.3438 31.8751C12.5841 33.1379 14.5163 33.3638 16.0069 32.4207C16.603 32.0423 17.2944 31.8414 18.0005 31.8414C18.7065 31.8414 19.398 32.0423 19.994 32.4207C21.4837 33.3638 23.4159 33.1379 24.6562 31.8751ZM9.15572 16.4967C9.15572 11.5252 13.1157 7.49498 18 7.49498C22.8843 7.49498 26.8443 11.5252 26.8443 16.4967C26.8443 21.4681 22.8843 25.4984 18 25.4984C13.1157 25.4984 9.15572 21.4681 9.15572 16.4967Z" fill="white"/>
</svg>
